# xmcd
# 
# Track frame offsets:
#     150
#     16291
#     44350
#     52511
#     79833
#     107752
#     134385
#     170773
#     199671
#     214896
#     240392
# 
# Disc length: 3602
# 
# Revision: 2
# Processed by: cddbd v1.5.2PL0 Copyright (c) Steve Scherf et al.
# Submitted via: fre:ac v1.0.27
# 
DISCID=8d0e100b
DTITLE=Mark Wyand - I'm old fashioned
DYEAR=2012
DGENRE=Jazz
TTITLE0=Lonnie's Lament
TTITLE1=Once I Loved
TTITLE2=Blue in Green
TTITLE3=Speak Low
TTITLE4=Lonely Woman
TTITLE5=I'm Old Fashioned
TTITLE6=In Your Own Sweet Way
TTITLE7=My Heart Stood Still
TTITLE8=Over The Rainbow
TTITLE9=I'm Getting Sentimental Over You
TTITLE10=The Nearness Of You
EXTD=YEAR: 2012
EXTT0=
EXTT1=
EXTT2=
EXTT3=
EXTT4=
EXTT5=
EXTT6=
EXTT7=
EXTT8=
EXTT9=
EXTT10=
PLAYORDER=
